<svg xmlns:inkscape="http://www.inkscape.org/namespaces/inkscape" xmlns:sodipodi="http://sodipodi.sourceforge.net/DTD/sodipodi-0.dtd" xmlns:xlink="http://www.w3.org/1999/xlink" xmlns="http://www.w3.org/2000/svg" xmlns:svg="http://www.w3.org/2000/svg" version="1.1" id="svg5" inkscape:version="1.1.1 (3bf5ae0d25, 2021-09-20)" sodipodi:docname="CONTRAPOINTS LOGO.svg" viewBox="19.36 121.58 146.08 38.4">
  <sodipodi:namedview id="namedview7" pagecolor="#ffffff" bordercolor="#666666" borderopacity="1.0" inkscape:pageshadow="2" inkscape:pageopacity="0.0" inkscape:pagecheckerboard="0" inkscape:document-units="mm" showgrid="false" inkscape:object-nodes="false" inkscape:object-paths="true" inkscape:snap-midpoints="false" inkscape:snap-nodes="false" inkscape:snap-global="true" inkscape:zoom="1.3354477" inkscape:cx="422.70469" inkscape:cy="361.30206" inkscape:window-width="1366" inkscape:window-height="715" inkscape:window-x="-8" inkscape:window-y="-8" inkscape:window-maximized="1" inkscape:current-layer="layer1" showguides="false"/>
  <defs id="defs2">
    <rect x="152.75776" y="587.81784" width="112.32188" height="54.663315" id="rect2447"/>
    <rect x="253.09642" y="575.02659" width="248.8605" height="60.361908" id="rect208007"/>
    <rect x="526.78962" y="458.27327" width="47.736799" height="45.490361" id="rect199226"/>
    <rect x="322.98915" y="472.83494" width="200.67687" height="91.072352" id="rect173507"/>
    <rect x="301.80954" y="469.658" width="206.50126" height="54.008023" id="rect158014"/>
    <rect x="102.72114" y="378.05616" width="163.61254" height="41.300253" id="rect152626"/>
    <rect x="459.59768" y="308.16342" width="68.833754" height="45.536176" id="rect142180"/>
    <rect x="69.892735" y="159.90611" width="521.01857" height="86.836429" id="rect131844"/>
    <rect x="44.477195" y="128.13668" width="477.60036" height="135.54955" id="rect129374"/>
    <rect x="75.187639" y="299.69158" width="450.06686" height="67.774773" id="rect104918"/>
    <rect x="449.00787" y="348.40469" width="340.99183" height="46.595157" id="rect101714"/>
    <rect x="458.5387" y="383.35106" width="419.35641" height="122.84178" id="rect97772"/>
    <rect x="485.01322" y="350.52266" width="422.53335" height="70.951716" id="rect92114"/>
    <linearGradient id="linearGradient80238" inkscape:swatch="solid">
      <stop style="stop-color:#1b1b28;stop-opacity:1;" offset="0" id="stop80236"/>
    </linearGradient>
    <rect x="112.25197" y="303.9275" width="342.0508" height="46.595157" id="rect52845"/>
    <rect x="124.95974" y="182.1447" width="720.10697" height="93.190316" id="rect2475"/>
    <linearGradient inkscape:collect="always" xlink:href="#linearGradient80238" id="linearGradient80240" x1="113.77539" y1="326.56353" x2="424.08789" y2="326.56353" gradientUnits="userSpaceOnUse"/>
    <rect x="526.78962" y="458.27327" width="47.736799" height="45.490361" id="rect202414"/>
    <rect x="152.75777" y="587.81781" width="112.32188" height="54.663315" id="rect2447-0"/>
  </defs>
  <g inkscape:label="Capa 1" inkscape:groupmode="layer" id="layer1">
    <text xml:space="preserve" transform="scale(0.26458333)" id="text92112" style="font-style:normal;font-weight:normal;font-size:40px;line-height:1.25;font-family:sans-serif;white-space:pre;shape-inside:url(#rect92114);fill:#000000;fill-opacity:1;stroke:none;stroke-width:1.5;stroke-miterlimit:4;stroke-dasharray:none"/>
    <text xml:space="preserve" transform="scale(0.26458333)" id="text97770" style="font-style:normal;font-weight:normal;font-size:40px;line-height:1.25;font-family:sans-serif;white-space:pre;shape-inside:url(#rect97772);fill:#000000;fill-opacity:1;stroke:none"/>
    <text xml:space="preserve" transform="scale(0.26458333)" id="text101712" style="font-style:normal;font-weight:normal;font-size:40px;line-height:1.25;font-family:sans-serif;white-space:pre;shape-inside:url(#rect101714);fill:#000000;fill-opacity:1;stroke:none"/>
    <text xml:space="preserve" transform="scale(0.26458333)" id="text104916" style="font-style:normal;font-weight:normal;font-size:40px;line-height:1.25;font-family:sans-serif;white-space:pre;shape-inside:url(#rect104918);fill:#000000;fill-opacity:1;stroke:none;stroke-width:2.5;stroke-miterlimit:4;stroke-dasharray:none"/>
    <text xml:space="preserve" transform="scale(0.26458333)" id="text152624" style="font-style:normal;font-weight:normal;font-size:40px;line-height:1.25;font-family:sans-serif;white-space:pre;shape-inside:url(#rect152626);fill:#000000;fill-opacity:1;stroke:none"/>
    <ellipse style="opacity:1;fill:none;fill-opacity:1;fill-rule:evenodd;stroke:#000000;stroke-width:0;stroke-linecap:square;stroke-linejoin:round;stroke-miterlimit:4;stroke-dasharray:none;stroke-dashoffset:0;stroke-opacity:1;paint-order:markers stroke fill" id="path189566" cx="151.96057" cy="137.89383" rx="13.472384" ry="8.7174253"/>
    <g id="g202398" transform="matrix(0.33146477,0,0,0.27876359,79.192208,94.797554)" style="stroke:#000000;stroke-width:1.64488;stroke-linecap:square;stroke-linejoin:bevel;stroke-miterlimit:4;stroke-dasharray:none;stroke-dashoffset:0;stroke-opacity:1">
      <path style="fill:none;stroke:#000000;stroke-width:1.64488;stroke-linecap:square;stroke-linejoin:bevel;stroke-miterlimit:4;stroke-dasharray:none;stroke-dashoffset:0;stroke-opacity:1" d="m 141.48509,138.65511 v -20.80294 c 1.84637,-2.85663 3.70768,-4.62977 5.48039,-5.59642 1.77271,-0.96665 3.4568,-1.12682 4.94873,-0.75749 2.98385,0.73865 5.19901,3.59528 5.817,6.35391 0.61915,2.76379 0.38534,5.1703 -0.43164,7.29432 -0.81698,2.12402 -2.21714,3.96555 -3.93069,5.5994 -3.4271,3.26769 -8.10778,5.70463 -11.88379,7.90922 z" id="path202394" sodipodi:nodetypes="ccsssssc"/>
      <path style="fill:none;stroke:#000000;stroke-width:1.64488;stroke-linecap:square;stroke-linejoin:bevel;stroke-miterlimit:4;stroke-dasharray:none;stroke-dashoffset:0;stroke-opacity:1" d="m 140.81767,138.65733 v -20.80294 c -3.69273,-5.71325 -7.44526,-7.09257 -10.42911,-6.35391 -2.98385,0.73865 -5.19901,3.59527 -5.817,6.35391 -0.61915,2.76379 -0.38534,5.1703 0.43164,7.29432 0.81699,2.12402 2.21714,3.96555 3.93069,5.5994 3.4271,3.26769 8.10777,5.70463 11.88378,7.90922 z" id="path202396" sodipodi:nodetypes="ccssssc"/>
    </g>
    <g id="g6636">
      <text xml:space="preserve" transform="matrix(0.2759628,-3.7887299e-4,-0.00135437,0.26229027,-62.35736,1.8074042)" id="text158012" style="font-style:normal;font-variant:normal;font-weight:normal;font-stretch:normal;font-size:40px;line-height:1.25;font-family:Century;-inkscape-font-specification:'Century, Normal';font-variant-ligatures:normal;font-variant-caps:normal;font-variant-numeric:normal;font-variant-east-asian:normal;white-space:pre;shape-inside:url(#rect158014);fill:#000000;fill-opacity:1;stroke:#000000;stroke-width:1.75748;stroke-miterlimit:4;stroke-dasharray:none;stroke-opacity:1" inkscape:transform-center-x="0.87170008" inkscape:transform-center-y="-0.9709543"><tspan x="301.80859" y="506.324" id="tspan7039">CONTRA</tspan></text>
      <text xml:space="preserve" transform="matrix(0.27499803,-0.00149066,0.00148432,0.27382861,-20.181209,-4.3666737)" id="text173505" style="font-style:normal;font-variant:normal;font-weight:normal;font-stretch:normal;font-size:40px;line-height:1.25;font-family:Century;-inkscape-font-specification:'Century, Normal';font-variant-ligatures:normal;font-variant-caps:normal;font-variant-numeric:normal;font-variant-east-asian:normal;white-space:pre;shape-inside:url(#rect173507);fill:#000000;fill-opacity:1;stroke:#000000;stroke-width:0;stroke-linecap:round;stroke-linejoin:round;stroke-miterlimit:4;stroke-dasharray:none;stroke-opacity:1"><tspan x="322.98828" y="509.49978" id="tspan7041">POINTS</tspan></text>
    </g>
    <g id="g202404" transform="matrix(0.36131198,0,0,0.28030104,74.942574,94.562397)" style="stroke:#000000;stroke-width:1.56481;stroke-linecap:square;stroke-linejoin:bevel;stroke-miterlimit:4;stroke-dasharray:none;stroke-dashoffset:0;stroke-opacity:1">
      <path style="fill:none;stroke:#000000;stroke-width:1.56481;stroke-linecap:square;stroke-linejoin:bevel;stroke-miterlimit:4;stroke-dasharray:none;stroke-dashoffset:0;stroke-opacity:1" d="m 141.48509,138.65511 v -20.80294 c 1.84637,-2.85663 3.70768,-4.62977 5.48039,-5.59642 1.77271,-0.96665 3.4568,-1.12682 4.94873,-0.75749 2.98385,0.73865 5.19901,3.59528 5.817,6.35391 0.61915,2.76379 0.38534,5.1703 -0.43164,7.29432 -0.81698,2.12402 -2.21714,3.96555 -3.93069,5.5994 -3.4271,3.26769 -8.10778,5.70463 -11.88379,7.90922 z" id="path202400" sodipodi:nodetypes="ccsssssc"/>
      <path style="fill:none;stroke:#000000;stroke-width:1.56481;stroke-linecap:square;stroke-linejoin:bevel;stroke-miterlimit:4;stroke-dasharray:none;stroke-dashoffset:0;stroke-opacity:1" d="m 140.81767,138.65733 v -20.80294 c -3.69273,-5.71325 -7.44526,-7.09257 -10.42911,-6.35391 -2.98385,0.73865 -5.19901,3.59527 -5.817,6.35391 -0.61915,2.76379 -0.38534,5.1703 0.43164,7.29432 0.81699,2.12402 2.21714,3.96555 3.93069,5.5994 3.4271,3.26769 8.10777,5.70463 11.88378,7.90922 z" id="path202402" sodipodi:nodetypes="ccssssc"/>
    </g>
    <text xml:space="preserve" transform="matrix(0.2760518,0,0,0.36495557,-21.658624,-45.52046)" id="text202408" style="font-style:normal;font-variant:normal;font-weight:normal;font-stretch:normal;font-size:40px;line-height:1.25;font-family:Century;-inkscape-font-specification:'Century, Normal';font-variant-ligatures:normal;font-variant-caps:normal;font-variant-numeric:normal;font-variant-east-asian:normal;white-space:pre;shape-inside:url(#rect202414);fill:#000000;fill-opacity:1;stroke:#000000;stroke-width:0;stroke-linecap:square;stroke-linejoin:bevel;stroke-miterlimit:4;stroke-dasharray:none;stroke-dashoffset:0;stroke-opacity:1"><tspan x="526.78906" y="494.93923" id="tspan7043">I</tspan></text>
    <text xml:space="preserve" transform="matrix(0.20648549,-0.03949353,0.01052746,0.14705698,50.308974,74.589603)" id="text208005" style="font-style:normal;font-variant:normal;font-weight:normal;font-stretch:normal;font-size:40px;line-height:1.25;font-family:'Andina Demo';-inkscape-font-specification:'Andina Demo, Normal';font-variant-ligatures:normal;font-variant-caps:normal;font-variant-numeric:normal;font-variant-east-asian:normal;white-space:pre;shape-inside:url(#rect208007);fill:#ffffff;fill-opacity:1;stroke:none" inkscape:transform-center-x="-1.5435195" inkscape:transform-center-y="-2.026189"><tspan x="253.0957" y="604.54499" id="tspan7045">.tv</tspan></text>
    <text xml:space="preserve" transform="matrix(0.16107401,0,0,0.14646927,87.35176,44.272694)" id="text2445" style="font-style:normal;font-variant:normal;font-weight:normal;font-stretch:normal;font-size:40px;line-height:1.25;font-family:'Andina Demo';-inkscape-font-specification:'Andina Demo, Normal';font-variant-ligatures:normal;font-variant-caps:normal;font-variant-numeric:normal;font-variant-east-asian:normal;white-space:pre;shape-inside:url(#rect2447);fill:#000000;fill-opacity:1;stroke:none"><tspan x="152.75781" y="617.33601" id="tspan7047">.tv</tspan></text>
  </g>
</svg>